<?xml version="1.0" encoding="UTF-8"?>
<!DOCTYPE svg PUBLIC "-//W3C//DTD SVG 1.1//EN" "http://www.w3.org/Graphics/SVG/1.1/DTD/svg11.dtd">
<svg xmlns="http://www.w3.org/2000/svg" version="1.1" width="374px" height="230px" style="shape-rendering:geometricPrecision; text-rendering:geometricPrecision; image-rendering:optimizeQuality; fill-rule:evenodd; clip-rule:evenodd" xmlns:xlink="http://www.w3.org/1999/xlink">
<g><path style="opacity:0.984" fill="#ecc338" d="M 32.5,-0.5 C 72.1667,-0.5 111.833,-0.5 151.5,-0.5C 151.369,0.238911 151.536,0.905578 152,1.5C 188.708,38.0407 225.208,74.7073 261.5,111.5C 298.494,74.1727 335.494,36.8394 372.5,-0.5C 372.833,-0.5 373.167,-0.5 373.5,-0.5C 373.5,76.1667 373.5,152.833 373.5,229.5C 360.167,229.5 346.833,229.5 333.5,229.5C 333.667,185.499 333.5,141.499 333,97.5C 308.653,122.014 284.153,146.347 259.5,170.5C 215.625,126.459 171.959,82.2925 128.5,38C 85.5013,37.5 42.5013,37.3333 -0.5,37.5C -0.5,36.8333 -0.5,36.1667 -0.5,35.5C 10.9568,23.9206 21.9568,11.9206 32.5,-0.5 Z"/></g>
<g><path style="opacity:0.986" fill="#ecc338" d="M -0.5,134.5 C -0.5,133.833 -0.5,133.167 -0.5,132.5C 11.2998,120.532 22.9665,108.365 34.5,96C 64.8333,95.3333 95.1667,95.3333 125.5,96C 138.196,108.362 150.53,121.029 162.5,134C 108.168,134.5 53.8344,134.667 -0.5,134.5 Z"/></g>
<g><path style="opacity:0.992" fill="#ecc338" d="M -0.5,189.5 C 72.8341,189.333 146.167,189.5 219.5,190C 232.038,203.036 244.372,216.203 256.5,229.5C 181.5,229.5 106.5,229.5 31.5,229.5C 21.1796,216.515 10.513,203.849 -0.5,191.5C -0.5,190.833 -0.5,190.167 -0.5,189.5 Z"/></g>
</svg>
