<?xml version="1.0" encoding="UTF-8"?>
<!DOCTYPE svg PUBLIC "-//W3C//DTD SVG 1.1//EN" "http://www.w3.org/Graphics/SVG/1.1/DTD/svg11.dtd">
<svg xmlns="http://www.w3.org/2000/svg" version="1.1" width="378px" height="230px" style="shape-rendering:geometricPrecision; text-rendering:geometricPrecision; image-rendering:optimizeQuality; fill-rule:evenodd; clip-rule:evenodd" xmlns:xlink="http://www.w3.org/1999/xlink">
<g><path style="opacity:1" fill="#ecc239" d="M 376.5,-0.5 C 376.833,-0.5 377.167,-0.5 377.5,-0.5C 377.5,76.1667 377.5,152.833 377.5,229.5C 364.167,229.5 350.833,229.5 337.5,229.5C 337.667,185.165 337.5,140.832 337,96.5C 312.653,121.014 288.153,145.347 263.5,169.5C 221.013,126.846 178.68,84.013 136.5,41C 92.1629,40.8333 47.8296,40.3333 3.5,39.5C 14.6498,27.1828 25.9831,15.0161 37.5,3C 75.8333,2.33333 114.167,2.33333 152.5,3C 189.708,40.0407 226.708,77.2073 263.5,114.5C 301.523,76.4777 339.189,38.1444 376.5,-0.5 Z"/></g>
<g><path style="opacity:1" fill="#ecc239" d="M -0.5,135.5 C -0.5,135.167 -0.5,134.833 -0.5,134.5C 12.2985,122.202 24.9652,109.702 37.5,97C 72.8333,96.3333 108.167,96.3333 143.5,97C 155.35,109.349 167.017,121.849 178.5,134.5C 118.837,135.5 59.1704,135.833 -0.5,135.5 Z"/></g>
<g><path style="opacity:1" fill="#ecc239" d="M 260.5,229.5 C 185.833,229.5 111.167,229.5 36.5,229.5C 25.075,216.343 13.4084,203.343 1.5,190.5C 37,190.167 72.5,189.833 108,189.5C 146.192,189.358 184.358,189.858 222.5,191C 235.369,203.702 248.035,216.535 260.5,229.5 Z"/></g>
</svg>
