<?xml version="1.0" encoding="UTF-8"?>
<svg version="1.1" viewBox="0 0 1496 920" width="374" height="230" xmlns="http://www.w3.org/2000/svg">
<path transform="translate(135)" d="m0 0h467l7 8 1 3h2l7 8 80 80 6 7 131 131v2l4 2 7 8 110 110 5 6 85 85 4-2 38-38 5-6 7-6 6-7h2l2-4 121-121 6-7h2l2-4 100-100 7-8 108-108 1-2h2v-2h2l2-4h2l2-4 26-26h2v919h-160v-531l-8 7-287 287-4-2-23-23v-2h-2l-7-8-41-41-7-8-41-41-7-8-33-33v-2h-2l-7-8-25-25v-2h-2l-7-8-38-38v-2l-3-1-7-8-37-37v-2h-2l-7-8-33-33-7-8-27-27-7-8-41-41-7-8-39-39v-2h-2l-7-8-42-42-9-7-518-1 2-4 13-13 7-8 12-14 12-13 10-11 9-11 7-7 7-8 3-4h2l2-4 12-13 7-8 11-12 12-14z" fill="#F7C63E"/>
<path transform="translate(0,760)" d="m0 0h876l19 19 7 8 14 14 7 8 12 12 7 8 12 12 7 8 10 10 7 8 14 14 7 8 12 12 7 8 9 10v1h-896l-11-14-14-17-11-13-8-10-11-13-9-11-14-17-11-13-8-10-11-13-11-14-11-12z" fill="#F7C63E"/>
<path transform="translate(144,384)" d="m0 0h356l37 37v2h2l7 8 32 32v2h2l7 8 30 30v2l3 1 7 8 23 23v3h-650l2-4 9-8 7-8 12-13 9-10 12-13 4-5h2l2-4 9-9 7-8 14-15 9-10 5-6h2l2-4 10-10 7-8 12-13z" fill="#F7C63E"/>
</svg>
